<?xml version="1.0" encoding="UTF-8" standalone="no"?>
<!-- Created with Inkscape (http://www.inkscape.org/) -->

<svg
   width="512"
   height="512"
   viewBox="0 0 511.99996 511.99999"
   version="1.1"
   id="svg1"
   xml:space="preserve"
   inkscape:version="1.4 (86a8ad7, 2024-10-11)"
   sodipodi:docname="icon.svg"
   inkscape:export-filename="D:\Users\17245\Desktop\рисунок.png"
   inkscape:export-xdpi="96"
   inkscape:export-ydpi="96"
   xmlns:inkscape="http://www.inkscape.org/namespaces/inkscape"
   xmlns:sodipodi="http://sodipodi.sourceforge.net/DTD/sodipodi-0.dtd"
   xmlns="http://www.w3.org/2000/svg"
   xmlns:svg="http://www.w3.org/2000/svg"><sodipodi:namedview
     id="namedview1"
     pagecolor="#ffffff"
     bordercolor="#000000"
     borderopacity="0.25"
     inkscape:showpageshadow="2"
     inkscape:pageopacity="0.0"
     inkscape:pagecheckerboard="0"
     inkscape:deskcolor="#d1d1d1"
     inkscape:document-units="mm"
     inkscape:zoom="0.68"
     inkscape:cx="422.79412"
     inkscape:cy="408.08824"
     inkscape:window-width="1920"
     inkscape:window-height="1017"
     inkscape:window-x="-8"
     inkscape:window-y="-8"
     inkscape:window-maximized="1"
     inkscape:current-layer="layer1"
     inkscape:export-bgcolor="#ffffff00" /><defs
     id="defs1" /><g
     inkscape:label="Layer"
     inkscape:groupmode="layer"
     id="layer1"
     transform="translate(-211.36186,-413.37018)"><g
       id="g3"
       inkscape:label="ZXRainbow"
       transform="matrix(0.63773152,0,0,0.63773152,-490.70716,553.06105)"><polygon
         fill="#00a7e1"
         points="436.392,138 338.29,0 308.726,0 406.816,138 "
         id="polygon1"
         transform="matrix(3.7101448,0,0,3.7101448,284.65307,-73.620557)" /><polygon
         fill="#3d9b00"
         points="406.816,138 308.726,0 279.151,0 377.241,138 "
         id="polygon2"
         transform="matrix(3.7101448,0,0,3.7101448,284.65307,-73.620557)" /><polygon
         fill="#ffc610"
         points="377.241,138 279.151,0 249.575,0 347.665,138 "
         id="polygon3"
         transform="matrix(3.7101448,0,0,3.7101448,284.65307,-73.620557)" /><polygon
         fill="#ff1f1f"
         points="347.665,138 249.575,0 220,0 318.101,138 "
         id="polygon4"
         transform="matrix(3.7101448,0,0,3.7101448,284.65307,-73.620557)" /></g><path
       d="M 323.20434,798.55035 V 722.0225 h 15.30556 v 30.61114 h 61.22228 V 722.0225 h 15.33173 v 76.52785 H 399.73218 V 767.93921 H 338.5099 v 30.61114 z M 338.5099,722.0225 v -15.30557 h 61.22228 v 15.30557 z m 109.91229,76.52785 v -61.22228 h 15.30559 v 61.22228 z m 15.30559,-61.22228 V 722.0225 h 45.91669 v 15.30557 z m 125.21787,61.22228 v -15.30558 h 30.61113 v 15.30558 z m -15.30558,-15.30558 v -45.9167 H 558.33451 V 722.0225 h 15.30556 v -15.30557 h 15.30558 v 15.30557 h 15.30555 v 15.30557 h -15.30555 v 45.9167 z"
       id="text2-4"
       style="font-size:426.667px;font-family:'ZX Spectrum';-inkscape-font-specification:'ZX Spectrum';letter-spacing:-50px;fill:#999999;stroke-width:0.251168"
       aria-label="Art" /><path
       d="M 319.18565,794.39046 V 717.8626 h 15.30557 v 30.61114 h 61.22226 V 717.8626 h 15.33173 v 76.52786 h -15.33173 v -30.61114 h -61.22226 v 30.61114 z m 15.30557,-76.52786 v -15.30556 h 61.22226 v 15.30556 z m 109.9123,76.52786 v -61.22229 h 15.30556 v 61.22229 z m 15.30556,-61.22229 V 717.8626 h 45.91672 v 15.30557 z m 125.21788,61.22229 v -15.30559 h 30.61113 v 15.30559 z M 569.6214,779.08487 v -45.9167 H 554.31584 V 717.8626 h 15.30556 v -15.30556 h 15.30556 v 15.30556 h 15.30557 v 15.30557 h -15.30557 v 45.9167 z"
       id="text2"
       style="font-size:426.667px;font-family:'ZX Spectrum';-inkscape-font-specification:'ZX Spectrum';letter-spacing:-50px;stroke-width:0.251168"
       aria-label="Art" /><rect
       style="fill:#666666;stroke-width:0.0973146"
       id="rect1-1"
       width="220.74886"
       height="104.41666"
       x="362.51312"
       y="556.2887"
       inkscape:label="Rectangle" /><rect
       style="fill:#000000;stroke-width:0.0973146"
       id="rect1"
       width="220.74886"
       height="104.41666"
       x="356.98743"
       y="551.09283"
       inkscape:label="Rectangle" /><path
       style="font-size:426.667px;font-family:'ZX Spectrum';-inkscape-font-specification:'ZX Spectrum';letter-spacing:-50px;fill:#ffffff;stroke-width:0.251168"
       d="m 366.47593,649.96879 v -15.30557 h 15.30557 v -15.30557 h 15.30557 v 15.30557 h 61.24844 v 15.30557 z m 30.61114,-30.61114 v -15.30556 h 15.30557 v 15.30556 z m 15.30557,-15.30556 v -15.30557 h 15.30557 v 15.30557 z m 15.30557,-15.30557 v -15.30557 h -61.22228 v -15.30557 h 91.85958 v 15.30557 h -15.33174 v 15.30557 z m 48.69003,61.22227 v -15.30557 h 15.30557 v 15.30557 z m 76.52784,0 v -15.30557 h 15.33173 v 15.30557 z m -61.22227,-15.30557 v -15.30557 h 15.30557 v 15.30557 z m 45.9167,0 v -15.30557 h 15.30557 v 15.30557 z m -30.61113,-15.30557 v -30.61113 h 30.61113 v 30.61113 z m -15.30557,-30.61113 v -15.30557 h 15.30557 v 15.30557 z m 45.9167,0 v -15.30557 h 15.30557 v 15.30557 z m -61.22227,-15.30557 v -15.30557 h 15.30557 v 15.30557 z m 76.52784,0 v -15.30557 h 15.33173 v 15.30557 z"
       id="text1"
       aria-label="ZX" /></g></svg>
