<?xml version="1.0" encoding="UTF-8" standalone="no"?>
<!-- Created with Inkscape (http://www.inkscape.org/) -->

<svg
   width="2200"
   height="512"
   viewBox="0 0 2199.9999 512"
   version="1.1"
   id="svg1"
   xml:space="preserve"
   inkscape:version="1.4 (86a8ad7, 2024-10-11)"
   sodipodi:docname="logo.svg"
   inkscape:export-filename="рисунок.png"
   inkscape:export-xdpi="96"
   inkscape:export-ydpi="96"
   xmlns:inkscape="http://www.inkscape.org/namespaces/inkscape"
   xmlns:sodipodi="http://sodipodi.sourceforge.net/DTD/sodipodi-0.dtd"
   xmlns="http://www.w3.org/2000/svg"
   xmlns:svg="http://www.w3.org/2000/svg"><sodipodi:namedview
     id="namedview1"
     pagecolor="#ffffff"
     bordercolor="#000000"
     borderopacity="0.25"
     inkscape:showpageshadow="2"
     inkscape:pageopacity="0.0"
     inkscape:pagecheckerboard="0"
     inkscape:deskcolor="#d1d1d1"
     inkscape:document-units="mm"
     inkscape:zoom="0.2"
     inkscape:cx="1122.5"
     inkscape:cy="387.5"
     inkscape:window-width="1920"
     inkscape:window-height="1017"
     inkscape:window-x="-8"
     inkscape:window-y="-8"
     inkscape:window-maximized="1"
     inkscape:current-layer="layer1"
     inkscape:export-bgcolor="#4c4c4cff" /><defs
     id="defs1" /><g
     inkscape:label="Layer"
     inkscape:groupmode="layer"
     id="layer1"
     transform="translate(182.63809,73.370537)"><rect
       style="fill:#666666;stroke-width:0.387447"
       id="rect1-1"
       width="878.88892"
       height="415.72418"
       x="-113.41585"
       y="-3.5927622"
       inkscape:label="Rectangle" /><rect
       style="fill:#000000;stroke-width:0.387447"
       id="rect1"
       width="878.88892"
       height="415.72418"
       x="-139.97136"
       y="-24.279629"
       inkscape:label="Rectangle" /><g
       id="g3"
       inkscape:label="ZXRainbow"><polygon
         fill="#00a7e1"
         points="406.816,138 436.392,138 338.29,0 308.726,0 "
         id="polygon1"
         transform="matrix(3.7101448,0,0,3.7101448,284.65307,-73.620557)" /><polygon
         fill="#3d9b00"
         points="377.241,138 406.816,138 308.726,0 279.151,0 "
         id="polygon2"
         transform="matrix(3.7101448,0,0,3.7101448,284.65307,-73.620557)" /><polygon
         fill="#ffc610"
         points="347.665,138 377.241,138 279.151,0 249.575,0 "
         id="polygon3"
         transform="matrix(3.7101448,0,0,3.7101448,284.65307,-73.620557)" /><polygon
         fill="#ff1f1f"
         points="318.101,138 347.665,138 249.575,0 220,0 "
         id="polygon4"
         transform="matrix(3.7101448,0,0,3.7101448,284.65307,-73.620557)" /></g><g
       id="g2"
       inkscape:label="Font"><path
         style="font-size:426.667px;font-family:'ZX Spectrum';-inkscape-font-specification:'ZX Spectrum';letter-spacing:-50px;fill:#ffffff"
         d="m -106.02658,369.38489 v -60.93755 h 60.937546 v -60.93755 h 60.937547 v 60.93755 H 259.70287 v 60.93755 z M 15.848513,247.50979 v -60.93754 h 60.937546 v 60.93754 z M 76.786059,186.57225 V 125.6347 h 60.937551 v 60.93755 z M 137.72361,125.6347 V 64.697155 H -106.02658 V 3.7596087 H 259.70287 V 64.697155 H 198.66115 V 125.6347 Z m 193.85436,243.75019 v -60.93755 h 60.93755 v 60.93755 z m 304.68774,0 v -60.93755 h 61.04171 v 60.93755 z M 392.51552,308.44734 v -60.93755 h 60.93755 v 60.93755 z m 182.81264,0 v -60.93755 h 60.93755 v 60.93755 z M 453.45307,247.50979 V 125.6347 H 575.32816 V 247.50979 Z M 392.51552,125.6347 V 64.697155 h 60.93755 V 125.6347 Z m 182.81264,0 V 64.697155 h 60.93755 V 125.6347 Z M 331.57797,64.697155 V 3.7596087 h 60.93755 V 64.697155 Z m 304.68774,0 V 3.7596087 h 61.04171 V 64.697155 Z"
         id="text1"
         aria-label="ZX" /><path
         d="M 816.05425,385.94708 V 81.25935 h 60.93754 V 203.13444 H 1120.742 V 81.25935 h 61.0417 V 385.94708 H 1120.742 V 264.07199 H 876.99179 V 385.94708 Z M 876.99179,81.25935 V 20.321804 H 1120.742 V 81.25935 Z M 1314.5963,385.94708 V 142.1969 h 60.9376 V 385.94708 Z M 1375.5339,142.1969 V 81.25935 h 182.8126 v 60.93755 z m 498.5421,243.75018 v -60.93754 h 121.8751 v 60.93754 z m -60.9376,-60.93754 V 142.1969 h -60.9375 V 81.25935 h 60.9375 V 20.321804 h 60.9376 V 81.25935 h 60.9375 v 60.93755 h -60.9375 v 182.81264 z"
         id="text2-4"
         style="font-size:426.667px;font-family:'ZX Spectrum';-inkscape-font-specification:'ZX Spectrum';letter-spacing:-50px;fill:#999999"
         aria-label="Art" /><path
         d="M 791.6328,369.38489 V 64.697155 h 60.93754 V 186.57225 H 1096.3205 V 64.697155 h 61.0417 V 369.38489 h -61.0417 V 247.50979 H 852.57034 v 121.8751 z M 852.57034,64.697155 V 3.7596087 H 1096.3205 V 64.697155 Z M 1290.1749,369.38489 V 125.6347 h 60.9375 V 369.38489 Z M 1351.1124,125.6347 V 64.697155 h 182.8127 V 125.6347 Z m 498.5421,243.75019 v -60.93755 h 121.8751 v 60.93755 z M 1788.717,308.44734 V 125.6347 h -60.9375 V 64.697155 h 60.9375 V 3.7596087 h 60.9375 V 64.697155 h 60.9376 V 125.6347 h -60.9376 v 182.81264 z"
         id="text2"
         style="font-size:426.667px;font-family:'ZX Spectrum';-inkscape-font-specification:'ZX Spectrum';letter-spacing:-50px"
         aria-label="Art" /></g></g></svg>
